<?xml version="1.0" encoding="iso-8859-1"?>
<svg version="1.1" id="Layer_1" xmlns="http://www.w3.org/2000/svg" xmlns:xlink="http://www.w3.org/1999/xlink" x="0px" y="0px"
	 viewBox="0 0 512 512" style="enable-background:new 0 0 512 512;" xml:space="preserve">
<path style="fill:#40596B;" d="M490.667,512H21.333C9.6,512,0,502.4,0,490.667V21.333C0,9.6,9.6,0,21.333,0h469.333
	C502.4,0,512,9.6,512,21.333v469.333C512,502.4,502.4,512,490.667,512z"/>
<path style="fill:#F2F2F2;" d="M37.333,453.333V192c0-11.733,9.6-21.333,21.333-21.333h394.667c11.733,0,21.333,9.6,21.333,21.333
	v261.333c0,11.733-9.6,21.333-21.333,21.333H58.667C46.933,474.667,37.333,465.067,37.333,453.333z"/>
<g>
	<path style="fill:#334A5E;" d="M216.533,361.6V170.667h78.933V361.6c0,11.733-9.6,21.333-21.333,21.333h-36.267
		C226.133,382.933,216.533,373.333,216.533,361.6z"/>
	<path style="fill:#334A5E;" d="M91.733,361.6V170.667h78.933V361.6c0,11.733-9.6,21.333-21.333,21.333h-36.267
		C101.333,382.933,91.733,373.333,91.733,361.6z"/>
	<path style="fill:#334A5E;" d="M341.333,361.6V170.667h78.933V361.6c0,11.733-9.6,21.333-21.333,21.333h-36.267
		C350.933,382.933,341.333,373.333,341.333,361.6z"/>
</g>
<g>
	<rect x="245.333" y="382.933" style="fill:#CDD6E0;" width="21.333" height="91.733"/>
	<rect x="120.533" y="382.933" style="fill:#CDD6E0;" width="21.333" height="91.733"/>
	<rect x="370.133" y="382.933" style="fill:#CDD6E0;" width="21.333" height="91.733"/>
</g>
<path style="opacity:0.1;fill:#231F20;enable-background:new    ;" d="M38.4,186.667h436.267c-2.133-9.6-10.667-16-20.267-16H59.733
	C49.067,170.667,40.533,177.067,38.4,186.667z"/>
<rect x="37.333" y="45.867" style="fill:#54C0EB;" width="152.533" height="78.933"/>
<rect x="53.333" y="61.867" style="fill:#84DBFF;" width="120.533" height="46.933"/>
<circle style="fill:#FF7058;" cx="296.533" cy="85.333" r="22.4"/>
<circle style="fill:#FFD15C;" cx="374.4" cy="85.333" r="22.4"/>
<circle style="fill:#FF7058;" cx="452.267" cy="85.333" r="22.4"/>
</svg>
